<svg width="24" height="24" viewBox="0 0 24 24" fill="none" xmlns="http://www.w3.org/2000/svg"><path fill-rule="evenodd" clip-rule="evenodd" d="M9.33222 3.38672C5.8418 3.38672 3 6.22852 3 9.71894C3 11.0728 3.39779 12.3781 4.14244 13.4402C3.43124 14.2077 3 15.2509 3 16.3884C3 18.6829 4.77282 20.6245 7.04556 20.6245H16.9544C19.2272 20.6245 21 18.6829 21 16.3884C21 14.0938 19.2272 12.1522 16.9544 12.1522H15.1488C15.4727 11.4113 15.6644 10.5917 15.6644 9.71894C15.6644 6.22852 12.8226 3.38672 9.33222 3.38672ZM4.99333 9.71894C4.99333 7.31586 6.92915 5.38005 9.33222 5.38005C9.60555 5.38005 9.87238 5.40648 10.1319 5.4558L7.25965 12.1522H7.04556C6.61513 12.1522 6.20204 12.2249 5.81604 12.3547C5.29513 11.6387 4.99333 10.7131 4.99333 9.71894ZM9.42317 12.1522L11.9507 6.2598C12.9969 7.05054 13.6711 8.30218 13.6711 9.71894C13.6711 10.6192 13.3756 11.443 12.8799 12.1522H9.42317ZM4.99333 16.3884C4.99333 15.0911 5.94249 14.1456 7.04556 14.1456H11.0033V18.6311H7.04556C5.94249 18.6311 4.99333 17.6857 4.99333 16.3884ZM16.9544 18.6311H12.9967V14.1456H16.9544C18.0575 14.1456 19.0067 15.0911 19.0067 16.3884C19.0067 17.6857 18.0575 18.6311 16.9544 18.6311Z" fill="#544F4F"/></svg>
